<svg width="164" height="26" viewBox="0 0 164 26" fill="none" xmlns="http://www.w3.org/2000/svg">
<path d="M0.36 26L11.952 0.259999H20.844L32.436 26H26.172L23.724 20.564H9.072L6.624 26H0.36ZM11.16 15.884H21.636L16.632 4.76H16.164L11.16 15.884ZM30.8348 13.292V0.259999H62.5148V13.292H56.6828V4.94H48.8348V26H43.0748V4.94H36.6668V13.292H30.8348ZM66.645 26V0.259999H94.869V4.94H72.405V10.628H92.781V15.308H72.405V21.32H94.869V26H66.645ZM98.813 26V0.259999H104.645L122.861 18.764V0.259999H128.621V26H122.789L104.573 7.46V26H98.813ZM131.493 26L143.085 0.259999H151.977L163.569 26H157.305L154.857 20.564H140.205L137.757 26H131.493ZM142.293 15.884H152.769L147.765 4.76H147.297L142.293 15.884Z" fill="white"/>
</svg>
